<svg xmlns="http://www.w3.org/2000/svg" viewBox="0 0 120.5 60.5"><defs><style>.cls-1{fill:none;stroke:#6d6e71;stroke-miterlimit:10;stroke-width:0.5px;}.cls-2{fill:#939598;}</style></defs><g id="Layer_2" data-name="Layer 2"><g id="Layer_1-2" data-name="Layer 1"><rect class="cls-1" x="0.25" y="0.25" width="120" height="60" rx="12"/><path class="cls-2" d="M23.77,9.1v1.28H18a5.53,5.53,0,0,0-5.51,5.51v6.17H11V14.61A5.53,5.53,0,0,1,16.54,9.1Z"/><path class="cls-2" d="M23.77,50.13V48.85H18a5.53,5.53,0,0,1-5.51-5.51V37.17H11v7.45a5.53,5.53,0,0,0,5.51,5.51Z"/><path class="cls-2" d="M96.63,9.73V11h5.76a5.53,5.53,0,0,1,5.51,5.51v6.17h1.47V15.24a5.53,5.53,0,0,0-5.51-5.51Z"/><path class="cls-2" d="M96.63,50.77V49.49h5.76A5.53,5.53,0,0,0,107.9,44V37.81h1.47v7.45a5.53,5.53,0,0,1-5.51,5.51Z"/></g></g></svg>