<svg xmlns="http://www.w3.org/2000/svg" viewBox="0 0 60.5 60.5"><defs><style>.cls-1{fill:none;stroke:#6d6e71;stroke-miterlimit:10;stroke-width:0.5px;}.cls-2{fill:#939598;}</style></defs><g id="Layer_2" data-name="Layer 2"><g id="Layer_1-2" data-name="Layer 1"><rect class="cls-1" x="0.25" y="0.25" width="60" height="60" rx="12"/><path class="cls-2" d="M22.38,8.43V9.75H16.44a5.7,5.7,0,0,0-5.69,5.68V21.8H9.23V14.11a5.7,5.7,0,0,1,5.69-5.68Z"/><path class="cls-2" d="M22.38,50.76V49.44H16.44a5.7,5.7,0,0,1-5.69-5.68V37.39H9.23v7.69a5.7,5.7,0,0,0,5.69,5.68Z"/><path class="cls-2" d="M38.92,8.43V9.75h5.94a5.7,5.7,0,0,1,5.68,5.68V21.8h1.52V14.11a5.7,5.7,0,0,0-5.68-5.68Z"/><path class="cls-2" d="M38.92,50.76V49.44h5.94a5.7,5.7,0,0,0,5.68-5.68V37.39h1.52v7.69a5.7,5.7,0,0,1-5.68,5.68Z"/></g></g></svg>