<?xml version="1.0" encoding="UTF-8"?>
<svg id="Layer_2" data-name="Layer 2" xmlns="http://www.w3.org/2000/svg" viewBox="0 0 225.11 89">
  <defs>
    <style>
      .cls-1 {
        fill: #1e644a;
      }

      .cls-2 {
        fill: #00b6d3;
      }

      .cls-3 {
        fill: #d23d37;
      }

      .cls-4 {
        fill: #185338;
      }

      .cls-5 {
        fill: #393b3b;
      }
    </style>
  </defs>
  <g id="Layer_1-2" data-name="Layer 1">
    <g>
      <path class="cls-2" d="M87.53,15.28h2.5l5.95,7.27,5.95-7.27h2.5v18.42h-2.73v-13.77l-4.57,5.55h-2.27l-4.59-5.55v13.77h-2.73V15.28Z"/>
      <path class="cls-2" d="M109.38,15.28h9.79c.96,0,1.83,.23,2.62,.7s1.42,1.09,1.89,1.87,.7,1.65,.7,2.61v8.11c0,.94-.23,1.8-.7,2.58s-1.09,1.4-1.89,1.86-1.66,.69-2.62,.69h-9.79V15.28Zm9.79,15.69c.69,0,1.28-.24,1.76-.71s.73-1.05,.73-1.72v-8.07c0-.68-.24-1.26-.73-1.74s-1.07-.72-1.76-.72h-7.06v12.97h7.06Z"/>
      <path class="cls-2" d="M128.76,32.15c0-.47,.16-.86,.49-1.19s.73-.49,1.19-.49,.87,.16,1.2,.49,.49,.72,.49,1.2-.16,.87-.49,1.2-.72,.49-1.2,.49-.86-.16-1.19-.49-.49-.73-.49-1.19Z"/>
      <path class="cls-2" d="M87.27,46.27c0-.82,.21-1.57,.62-2.24s.96-1.21,1.66-1.61,1.46-.6,2.3-.6h9.54v2.72h-9.54c-.5,0-.93,.18-1.3,.53s-.54,.78-.54,1.28v1.27c0,.46,.18,.85,.54,1.18s.79,.49,1.3,.49h5.87c.85,0,1.62,.2,2.31,.6s1.24,.94,1.65,1.62,.62,1.43,.62,2.25v2.01c0,.82-.21,1.57-.62,2.25s-.96,1.22-1.65,1.62-1.46,.6-2.31,.6h-10.43v-2.73h10.43c.51,0,.94-.17,1.3-.51s.54-.75,.54-1.24v-1.98c0-.48-.18-.9-.54-1.24s-.79-.52-1.3-.52h-5.87c-.84,0-1.6-.2-2.3-.59s-1.25-.92-1.66-1.59-.62-1.4-.62-2.2v-1.36Z"/>
      <path class="cls-2" d="M106.98,41.81h2.73v7.48h9.55v-7.48h2.72v18.42h-2.72v-8.23h-9.55v8.23h-2.73v-18.42Z"/>
      <path class="cls-2" d="M132.24,41.81h3.41l6.59,18.42h-2.92l-2.01-5.55h-5.14l.98-2.72h3.17l-2.38-6.58-5.39,14.85h-2.92l6.59-18.42Z"/>
      <path class="cls-2" d="M145.9,41.81h12.33v2.72h-9.6v15.7h-2.73v-18.42Zm4.29,7.48h8.05v2.72h-8.05v-2.72Z"/>
      <path class="cls-2" d="M162.93,41.81h2.73v18.42h-2.73v-18.42Z"/>
      <path class="cls-2" d="M170.62,46.99c0-.96,.25-1.83,.74-2.61s1.16-1.41,1.99-1.87,1.75-.7,2.76-.7h4.31c1.01,0,1.93,.23,2.77,.7s1.5,1.09,1.99,1.87,.74,1.65,.74,2.61v8.06c0,.87-.21,1.68-.63,2.42s-.99,1.35-1.71,1.83-1.54,.78-2.46,.89l1.63,1.63-1.93,1.94-3.54-3.54h-1.18c-1.01,0-1.93-.23-2.76-.7s-1.49-1.09-1.99-1.88-.74-1.65-.74-2.6v-8.06Zm2.73,8.07c0,.67,.27,1.25,.81,1.73s1.19,.72,1.95,.72h4.31c.77,0,1.42-.24,1.96-.72s.8-1.06,.8-1.73v-8.08c0-.67-.27-1.25-.8-1.73s-1.19-.72-1.96-.72h-4.31c-.76,0-1.41,.24-1.95,.72s-.81,1.06-.81,1.73v8.08Z"/>
      <path class="cls-2" d="M190.88,41.81h2.73v13.25c0,.67,.25,1.25,.74,1.72s1.08,.71,1.77,.71h4.52c.69,0,1.28-.24,1.77-.71s.74-1.05,.74-1.72v-13.25h2.72v13.28c0,.94-.24,1.8-.71,2.58s-1.1,1.4-1.89,1.87-1.67,.69-2.64,.69h-4.52c-.97,0-1.85-.23-2.64-.69s-1.43-1.08-1.9-1.87-.71-1.64-.71-2.58v-13.28Z"/>
      <path class="cls-2" d="M210.83,41.81h2.72v13.27c0,.67,.24,1.25,.71,1.72s1.05,.71,1.71,.71h9.13v2.72h-9.13c-.94,0-1.8-.23-2.58-.69s-1.4-1.08-1.87-1.87-.69-1.65-.69-2.6v-13.27Z"/>
      <path class="cls-2" d="M87.53,68.34h2.73v18.42h-2.73v-18.42Z"/>
      <path class="cls-2" d="M94.96,72.8c0-.82,.21-1.57,.62-2.24s.96-1.21,1.66-1.61,1.46-.6,2.3-.6h9.54v2.72h-9.54c-.5,0-.93,.18-1.3,.53s-.54,.78-.54,1.28v1.27c0,.46,.18,.85,.54,1.18s.79,.49,1.3,.49h5.87c.85,0,1.62,.2,2.31,.6s1.24,.94,1.65,1.62,.62,1.43,.62,2.25v2.01c0,.82-.21,1.57-.62,2.25s-.96,1.22-1.65,1.62-1.46,.6-2.31,.6h-10.43v-2.73h10.43c.51,0,.94-.17,1.3-.51s.54-.75,.54-1.24v-1.98c0-.48-.18-.9-.54-1.24s-.79-.52-1.3-.52h-5.87c-.84,0-1.6-.2-2.3-.59s-1.25-.92-1.66-1.59-.62-1.4-.62-2.2v-1.36Z"/>
      <path class="cls-2" d="M114.67,68.34h2.72v13.27c0,.67,.24,1.25,.71,1.72s1.05,.71,1.71,.71h9.13v2.72h-9.13c-.94,0-1.8-.23-2.58-.69s-1.4-1.08-1.87-1.87-.69-1.65-.69-2.6v-13.27Z"/>
      <path class="cls-2" d="M137.91,68.34h3.41l6.59,18.42h-2.92l-2.01-5.55h-5.14l.98-2.72h3.17l-2.38-6.58-5.39,14.85h-2.92l6.59-18.42Z"/>
      <path class="cls-2" d="M151.57,68.34h2.5l5.95,7.27,5.95-7.27h2.5v18.42h-2.73v-13.77l-4.57,5.55h-2.27l-4.59-5.55v13.77h-2.73v-18.42Z"/>
      <g>
        <path class="cls-5" d="M73.13,48.78c1.84-1.52,5.19-3.42,3.6-6.35-1.62-2.98-4.86-.73-7.28-.41-7,.9-6.59,.95-8.19-5.74-2.56-10.88-1.06-22.16-3.68-32.99-.3-1.28,.03-3.43-1.88-3.21-1.68,.18-4.7-1.08-4.7,2.55,1.67,6.21,2,12.59,4.78,18.78,2.11,4.74,4.42,10.91,1.3,16.73,3.17,2.89,2.51,5.14-1.55,6.7,5.25,2.42,5.62,3.81,2.83,8.18-.51,.79-1.1,1.56-.88,2.85,1.9,10.97,2.92,22.04,3.89,33.13h13.49c-1.76-8.91-3.54-17.78-5.46-26.65-1.19-5.49-.85-9.77,3.72-13.57Zm-5.17,2.91c-1.38-4.54-1.63-7.82,4.63-6.08-1.5,1.97-2.9,3.81-4.63,6.08Z"/>
        <path class="cls-4" d="M35.76,40.77c1.59-1.7,1.63-2.97-.5-4.5-2.11-1.52-5.28-2.32-5.26-5.83,3.74,1.83,7.88,5,11.56,1.22,3.46-3.55,2.82-8.39,.76-12.82-.22-.47-.26-1.01-.39-1.52,3.84-1.89,8.07-8.82,7.61-13.46-2.38,4.96-7.19,7.37-8.29,12.47-3.93-2.59-7.45-.5-11.01,.99,.56-3.08,3.5-3.83,5.53-3.95,2.32-.13,3.52-1.27,4.91-2.49,1.07-.94,3.4-1.56,2.09-3.55-1.05-1.61-3-.63-4.41-.18-9.15,2.89-19.14,3.55-26.83,10.38-1.03,.91-3.02,.81-4.59,1.04-3.97,.58-2.81,3.37-2.34,5.65,.67,3.23,2.51,1.16,3.96,.68,3.04-1.02,5.87-2.39,8.2-4.67,1.66-1.63,3.81-2.05,6.77-2.85-4.44,6.72-10.19,10.76-15.48,15.27-2.11,1.8-5.77,3.06-2.25,6.82,.32,.34-.21,1.68-.6,2.44-.59,1.17-2.35,2.61-.25,3.36,1.68,.6,1.79-1.69,2.36-2.89,.67-1.43,1.3-2.88,2.1-4.24,1.77-3.04,4.01-4.11,5.17,.11,1.05,3.85,4.36,1.23,5.99,2.84-5.7,2.07-11.77,3.32-16.32,8.36-2.63-6.33-2.28-11.99-1.35-17.58,.84-5.1,.89-9.84-2.9-13.4C16.01,9.82,33.55,6.37,51,2.62c1.68,6.21,2.01,12.59,4.78,18.79,2.11,4.73,4.42,10.91,1.31,16.74-6.71,4.08-13.93,4.1-21.32,2.63Zm12.88-1.18c.86,.42,1.9-.83,1.25-1.54-1.93-2.15-1.91-6.33-5.26-6.59-1.65-.13-3.07,2.56-3.1,4.6,1.18,3.97,4.79,2.39,7.11,3.53Z"/>
        <path class="cls-1" d="M35.76,40.77c1.59-1.7,1.63-2.97-.5-4.5-2.11-1.52-5.28-2.32-5.26-5.83-.37-.51-.74-1.02-1.11-1.54-4.08-1.15-4.12-3.27-1.44-6.03l.03-.09c-.2-.92-.08-1.75,.73-2.35l-.07-.36c-.03-.76,.21-1.37,.95-1.7l-.02,.13c-.06-.7,.25-1.14,.93-1.32l.25,.13c.56-3.08,3.5-3.83,5.53-3.95,2.32-.13,3.52-1.27,4.91-2.49,1.07-.94,3.4-1.56,2.09-3.55-1.05-1.61-3-.63-4.41-.18-9.15,2.89-19.14,3.55-26.83,10.38-1.03,.91-3.02,.81-4.59,1.04-3.97,.58-2.81,3.37-2.34,5.65,.67,3.23,2.51,1.16,3.96,.68,3.04-1.02,5.87-2.39,8.2-4.67,1.66-1.63,3.81-2.05,6.77-2.85-4.44,6.72-10.19,10.76-15.48,15.27-2.11,1.8-5.77,3.06-2.25,6.82,.32,.34-.21,1.68-.6,2.44-.59,1.17-2.35,2.61-.25,3.36,1.68,.6,1.79-1.69,2.36-2.89,.67-1.43,1.3-2.88,2.1-4.24,1.77-3.04,4.01-4.11,5.17,.11,1.05,3.85,4.36,1.23,5.99,2.84,.74-.11,1.48-.23,2.23-.34-.58-3.56-5.27-6.63-1.23-10.93,1.69,3.97,3.89,7.38,8.25,9.87l-5.98,.97c3.98,.05,7.95,.11,11.93,.16Z"/>
        <path class="cls-4" d="M23.83,40.61l5.98-.97c-4.36-2.49-6.56-5.9-8.25-9.87-4.04,4.3,.65,7.37,1.23,10.93,.35-.03,.69-.06,1.04-.09Z"/>
        <path class="cls-3" d="M28.9,28.9c.37,.51,.74,1.03,1.11,1.54,3.74,1.83,7.88,5,11.56,1.22,3.46-3.55,2.82-8.39,.76-12.82-.22-.47-.26-1.01-.39-1.52-.23-.33-.45-.66-.68-1-3.93-2.59-7.45-.5-11.01,.99,0,0-.25-.13-.25-.13,.08,.71-.22,1.16-.92,1.32,0,0,.02-.13,.02-.13-.32,.57-.63,1.13-.95,1.7,0,0,.07,.36,.07,.36,.15,.91,0,1.72-.73,2.35,0,0-.03,.09-.03,.09,.48,2.01,.96,4.02,1.44,6.03Z"/>
        <path class="cls-1" d="M41.54,36.06c1.18,3.97,4.79,2.39,7.11,3.53,.86,.42,1.9-.83,1.25-1.54-1.93-2.15-1.91-6.33-5.26-6.59-1.65-.13-3.07,2.56-3.1,4.6Z"/>
        <path class="cls-1" d="M41.26,16.31c.23,.33,.45,.66,.68,1,3.84-1.88,8.07-8.82,7.61-13.46-2.38,4.96-7.19,7.37-8.29,12.47Z"/>
        <path class="cls-4" d="M28.9,28.9c-.48-2.01-.96-4.02-1.44-6.03-2.69,2.77-2.65,4.88,1.44,6.03Z"/>
        <path class="cls-4" d="M27.49,22.78c.73-.63,.88-1.45,.73-2.35-.81,.61-.93,1.43-.73,2.35Z"/>
        <path class="cls-4" d="M28.15,20.06c.32-.57,.63-1.13,.95-1.7-.74,.33-.98,.94-.95,1.7Z"/>
        <path class="cls-4" d="M29.08,18.5c.71-.16,1-.61,.92-1.32-.68,.18-.99,.62-.92,1.32Z"/>
      </g>
    </g>
  </g>
</svg>