<?xml version="1.0" encoding="UTF-8"?>
<svg id="Layer_2" data-name="Layer 2" xmlns="http://www.w3.org/2000/svg" viewBox="0 0 221.17 83.13">
  <defs>
    <style>
      .cls-1 {
        fill: #00b6d3;
      }

      .cls-2 {
        fill: #393b3b;
      }
    </style>
  </defs>
  <g id="Layer_1-2" data-name="Layer 1">
    <g>
      <path class="cls-1" d="M83.59,7.41h2.5l5.95,7.27,5.95-7.27h2.5V25.83h-2.73V12.06l-4.57,5.55h-2.27l-4.59-5.55v13.77h-2.73V7.41Z"/>
      <path class="cls-1" d="M105.44,7.41h9.79c.96,0,1.83,.23,2.62,.7s1.42,1.09,1.89,1.87,.7,1.65,.7,2.61v8.11c0,.94-.23,1.8-.7,2.58s-1.09,1.4-1.89,1.86-1.66,.69-2.62,.69h-9.79V7.41Zm9.79,15.69c.69,0,1.28-.24,1.76-.71s.73-1.05,.73-1.72V12.59c0-.68-.24-1.26-.73-1.74s-1.07-.72-1.76-.72h-7.06v12.97h7.06Z"/>
      <path class="cls-1" d="M124.82,24.28c0-.47,.16-.86,.49-1.19s.73-.49,1.19-.49,.87,.16,1.2,.49,.49,.72,.49,1.2-.16,.87-.49,1.2-.72,.49-1.2,.49-.86-.16-1.19-.49-.49-.73-.49-1.19Z"/>
      <path class="cls-1" d="M83.33,38.4c0-.82,.21-1.57,.62-2.24s.96-1.21,1.66-1.61,1.46-.6,2.3-.6h9.54v2.72h-9.54c-.5,0-.93,.18-1.3,.53s-.54,.78-.54,1.28v1.27c0,.46,.18,.85,.54,1.18s.79,.49,1.3,.49h5.87c.85,0,1.62,.2,2.31,.6s1.24,.94,1.65,1.62,.62,1.43,.62,2.25v2.01c0,.82-.21,1.57-.62,2.25s-.96,1.22-1.65,1.62-1.46,.6-2.31,.6h-10.43v-2.73h10.43c.51,0,.94-.17,1.3-.51s.54-.75,.54-1.24v-1.98c0-.48-.18-.9-.54-1.24s-.79-.52-1.3-.52h-5.87c-.84,0-1.6-.2-2.3-.59s-1.25-.92-1.66-1.59-.62-1.4-.62-2.2v-1.36Z"/>
      <path class="cls-1" d="M103.04,33.94h2.73v7.48h9.55v-7.48h2.72v18.42h-2.72v-8.23h-9.55v8.23h-2.73v-18.42Z"/>
      <path class="cls-1" d="M128.3,33.94h3.41l6.59,18.42h-2.92l-2.01-5.55h-5.14l.98-2.72h3.17l-2.38-6.58-5.39,14.85h-2.92l6.59-18.42Z"/>
      <path class="cls-1" d="M141.96,33.94h12.33v2.72h-9.6v15.7h-2.73v-18.42Zm4.29,7.48h8.05v2.72h-8.05v-2.72Z"/>
      <path class="cls-1" d="M158.99,33.94h2.73v18.42h-2.73v-18.42Z"/>
      <path class="cls-1" d="M166.68,39.12c0-.96,.25-1.83,.74-2.61s1.16-1.41,1.99-1.87,1.75-.7,2.76-.7h4.31c1.01,0,1.93,.23,2.77,.7s1.5,1.09,1.99,1.87,.74,1.65,.74,2.61v8.06c0,.87-.21,1.68-.63,2.42s-.99,1.35-1.71,1.83-1.54,.78-2.46,.89l1.63,1.63-1.93,1.94-3.54-3.54h-1.18c-1.01,0-1.93-.23-2.76-.7s-1.49-1.09-1.99-1.88-.74-1.65-.74-2.6v-8.06Zm2.73,8.07c0,.67,.27,1.25,.81,1.73s1.19,.72,1.95,.72h4.31c.77,0,1.42-.24,1.96-.72s.8-1.06,.8-1.73v-8.08c0-.67-.27-1.25-.8-1.73s-1.19-.72-1.96-.72h-4.31c-.76,0-1.41,.24-1.95,.72s-.81,1.06-.81,1.73v8.08Z"/>
      <path class="cls-1" d="M186.93,33.94h2.73v13.25c0,.67,.25,1.25,.74,1.72s1.08,.71,1.77,.71h4.52c.69,0,1.28-.24,1.77-.71s.74-1.05,.74-1.72v-13.25h2.72v13.28c0,.94-.24,1.8-.71,2.58s-1.1,1.4-1.89,1.87-1.67,.69-2.64,.69h-4.52c-.97,0-1.85-.23-2.64-.69s-1.43-1.08-1.9-1.87-.71-1.64-.71-2.58v-13.28Z"/>
      <path class="cls-1" d="M206.89,33.94h2.72v13.27c0,.67,.24,1.25,.71,1.72s1.05,.71,1.71,.71h9.13v2.72h-9.13c-.94,0-1.8-.23-2.58-.69s-1.4-1.08-1.87-1.87-.69-1.65-.69-2.6v-13.27Z"/>
      <path class="cls-1" d="M83.59,60.47h2.73v18.42h-2.73v-18.42Z"/>
      <path class="cls-1" d="M91.02,64.93c0-.82,.21-1.57,.62-2.24s.96-1.21,1.66-1.61,1.46-.6,2.3-.6h9.54v2.72h-9.54c-.5,0-.93,.18-1.3,.53s-.54,.78-.54,1.28v1.27c0,.46,.18,.85,.54,1.18s.79,.49,1.3,.49h5.87c.85,0,1.62,.2,2.31,.6s1.24,.94,1.65,1.62,.62,1.43,.62,2.25v2.01c0,.82-.21,1.57-.62,2.25s-.96,1.22-1.65,1.62-1.46,.6-2.31,.6h-10.43v-2.73h10.43c.51,0,.94-.17,1.3-.51s.54-.75,.54-1.24v-1.98c0-.48-.18-.9-.54-1.24s-.79-.52-1.3-.52h-5.87c-.84,0-1.6-.2-2.3-.59s-1.25-.92-1.66-1.59-.62-1.4-.62-2.2v-1.36Z"/>
      <path class="cls-1" d="M110.73,60.47h2.72v13.27c0,.67,.24,1.25,.71,1.72s1.05,.71,1.71,.71h9.13v2.72h-9.13c-.94,0-1.8-.23-2.58-.69s-1.4-1.08-1.87-1.87-.69-1.65-.69-2.6v-13.27Z"/>
      <path class="cls-1" d="M133.97,60.47h3.41l6.59,18.42h-2.92l-2.01-5.55h-5.14l.98-2.72h3.17l-2.38-6.58-5.39,14.85h-2.92l6.59-18.42Z"/>
      <path class="cls-1" d="M147.63,60.47h2.5l5.95,7.27,5.95-7.27h2.5v18.42h-2.73v-13.77l-4.57,5.55h-2.27l-4.59-5.55v13.77h-2.73v-18.42Z"/>
      <path class="cls-2" d="M0,83.13v-7.19c1.3,0,2.41-.03,3.51,.01,.7,.03,.95-.22,1.08-.92,.53-2.98,1.13-5.94,1.74-9.04,2.39,.68,4.7,1.35,7.14,2.05,.51-5.26,1-10.42,1.52-15.81,2.36,1.17,4.65,2.31,7.14,3.54,.19-5.26,.38-10.42,.58-15.78,2.62,1.71,5.08,3.31,7.73,5.04,.31-6.18,.62-12.21,.94-18.61,2.33,3.1,4.46,5.93,6.78,9.02,.38-6.98,.75-13.65,1.12-20.32,.07-.02,.13-.05,.2-.07,2.26,4.22,4.53,8.43,6.79,12.65,.07,0,.15-.02,.22-.03,.41-8.2,.82-16.4,1.24-24.59,.08-.01,.16-.03,.24-.04,1.97,7.25,3.94,14.5,5.92,21.75,.06,0,.13-.02,.19-.03,1.23-8.25,2.46-16.49,3.69-24.74,.05,0,.1-.01,.15-.02,.4,2.43,.81,4.85,1.21,7.28,1.19,7.33,2.39,14.65,3.56,21.98,1.32,8.27,2.61,16.55,3.93,24.82,1.11,6.98,2.25,13.95,3.36,20.93,.11,.71,.44,.98,1.2,.95,1.52-.06,3.04-.02,4.8-.02v7.19H0Zm14.95-14.8c7.34,2.5,14.58,4.98,21.83,7.42,.63,.21,1.35,.15,2.02,.22,.02-.08,.03-.17,.05-.25-7.47-7.08-14.94-14.16-22.6-21.43-.45,4.85-.87,9.4-1.3,14.03Zm9.37-25.72c-.1,.6-.19,.91-.2,1.23-.12,4.12-.24,8.24-.31,12.36,0,.4,.27,.91,.58,1.19,6.76,6.06,13.55,12.1,20.34,18.14,.21,.19,.48,.3,.72,.45l.16-.18c-7.04-10.98-14.09-21.96-21.29-33.19Zm8.86-9.74c-.1,0-.2,0-.3,0-.23,4.87-.47,9.74-.65,14.61-.02,.42,.26,.9,.51,1.28,4.94,7.36,9.89,14.72,14.84,22.07,1.14,1.69,2.28,3.38,3.42,5.07,.07-.04,.13-.08,.2-.12-6.01-14.31-12.01-28.62-18.02-42.92Zm8.68-6.4c-.07,0-.15,.02-.22,.03-.33,3.04-.68,6.07-1,9.11-.16,1.52-.56,3,.1,4.57,3.78,9.09,7.48,18.22,11.2,27.33,.98,2.41,1.97,4.82,2.96,7.22,.07-.02,.14-.05,.21-.07-4.42-16.06-8.84-32.13-13.25-48.19Zm7.21-6.3c-.07,.01-.14,.02-.21,.04-.17,3.79-.37,7.59-.5,11.38-.04,.99-.06,2.02,.18,2.97,3.46,13.3,6.97,26.59,10.47,39.88,.12,.47,.28,.94,.42,1.41,.08-.02,.17-.04,.25-.06-3.54-18.54-7.07-37.08-10.61-55.61Zm-17.89,55.7c.01-.06,.03-.11,.04-.17-7.8-2.55-15.59-5.1-23.45-7.67-.18,2.7-.35,5.24-.52,7.84H31.17Zm32.35,.04c-2.28-18.8-4.55-37.46-6.81-56.13-.22,.64-.32,1.28-.35,1.91-.11,2.67-.5,5.38-.24,8.02,.69,6.95,1.68,13.87,2.51,20.81,.85,7.06,1.66,14.12,2.49,21.17,.17,1.41,.37,2.81,.56,4.22h1.83Z"/>
    </g>
  </g>
</svg>